<svg width="86" height="114" viewBox="0 0 86 114" fill="none" xmlns="http://www.w3.org/2000/svg">
<path d="M24.5039 114C34.7138 114 43.0002 105.488 43.0002 95V76H24.5039C14.2939 76 6.00757 84.512 6.00757 95C6.00757 105.488 14.2939 114 24.5039 114Z" fill="#0ACF83"/>
<path d="M6.00757 57C6.00757 46.512 14.2939 38 24.5039 38H43.0002V76H24.5039C14.2939 76 6.00757 67.488 6.00757 57Z" fill="#A259FF"/>
<path d="M6.00781 19C6.00781 8.512 14.2942 0 24.5041 0H43.0004V38H24.5041C14.2942 38 6.00781 29.488 6.00781 19Z" fill="#F24E1E"/>
<path d="M43 0H61.4963C71.7063 0 79.9926 8.512 79.9926 19C79.9926 29.488 71.7063 38 61.4963 38H43V0Z" fill="#FF7262"/>
<path d="M79.9926 57C79.9926 67.488 71.7063 76 61.4963 76C51.2863 76 43 67.488 43 57C43 46.512 51.2863 38 61.4963 38C71.7063 38 79.9926 46.512 79.9926 57Z" fill="#1ABCFE"/>
</svg>
