<svg width="97" height="96" viewBox="0 0 97 96" fill="none" xmlns="http://www.w3.org/2000/svg">
<path d="M94.2778 43.7662L52.5442 1.88451C50.143 -0.527745 46.2452 -0.527745 43.8409 1.88451L35.1754 10.5827L46.1673 21.615C48.7227 20.749 51.6516 21.3296 53.6876 23.3735C55.7342 25.4301 56.3085 28.3949 55.4241 30.9682L66.0184 41.6014C68.5814 40.7149 71.5386 41.2876 73.5853 43.3454C76.4466 46.2164 76.4466 50.8685 73.5853 53.7402C70.7235 56.6129 66.0884 56.6129 63.2251 53.7402C61.0736 51.5792 60.5414 48.4064 61.6311 45.7458L51.7508 35.8292L51.75 61.9246C52.4476 62.2712 53.1059 62.7338 53.6872 63.3147C56.5477 66.1854 56.5477 70.8367 53.6872 73.7121C50.8259 76.5827 46.1887 76.5827 43.3303 73.7121C40.4694 70.8369 40.4694 66.1856 43.3303 63.3147C44.0374 62.6064 44.8555 62.0702 45.7284 61.7108V35.3729C44.8551 35.0151 44.0379 34.4829 43.3298 33.7689C41.1628 31.5956 40.6409 28.4034 41.7523 25.7326L30.9164 14.8552L2.30314 43.5727C-0.101045 45.9868 -0.101045 49.8989 2.30314 52.3113L44.0342 94.1931C46.4368 96.6054 50.3332 96.6054 52.7392 94.1931L94.2773 52.5092C96.6807 50.0958 96.6807 46.1825 94.2773 43.7698" fill="#F05133"/>
</svg>
