<svg width="30" height="30" viewBox="0 0 30 30" fill="none" xmlns="http://www.w3.org/2000/svg">
<g clip-path="url(#clip0_190_242)">
<path d="M23.75 0H6.24999C2.79875 0 0 2.79875 0 6.24999V23.75C0 27.2013 2.79875 30 6.24999 30H23.75C27.2025 30 30 27.2013 30 23.75V6.24999C30 2.79875 27.2025 0 23.75 0ZM18.1675 24.4875C17.6613 24.585 17.5 24.2737 17.5 24.0075V21.2638C17.5 20.33 17.1725 19.7225 16.8125 19.4125C19.04 19.165 21.38 18.3188 21.38 14.4788C21.38 13.3863 20.99 12.4938 20.3512 11.795C20.4538 11.5425 20.7962 10.525 20.2525 9.14876C20.2525 9.14876 19.4137 8.88 17.505 10.1738C16.705 9.94878 15.85 9.84 15 9.83499C14.15 9.83876 13.295 9.94877 12.4962 10.1712C10.5863 8.87751 9.74627 9.14627 9.74627 9.14627C9.20374 10.5237 9.54626 11.54 9.65001 11.7938C9.00999 12.4938 8.61999 13.385 8.61999 14.4775C8.61999 18.3075 10.9538 19.1663 13.1763 19.42C12.89 19.67 12.6313 20.11 12.5413 20.7575C11.97 21.0125 10.5237 21.4537 9.63124 19.925C9.63124 19.925 9.10251 18.965 8.09751 18.8937C8.09751 18.8937 7.12251 18.8813 8.02878 19.5025C8.02878 19.5025 8.685 19.81 9.14001 20.965C9.14001 20.965 9.71876 22.75 12.5 22.145V24.0063C12.5 24.27 12.3387 24.58 11.84 24.4875C7.86501 23.1663 5 19.4175 5 15C5 9.47627 9.47751 5 15 5C20.5225 5 25 9.47627 25 15C25 19.4163 22.1388 23.1637 18.1675 24.4875Z" fill="white"/>
</g>
<defs>
<clipPath id="clip0_190_242">
<rect width="30" height="30" fill="white"/>
</clipPath>
</defs>
</svg>
