<svg width="90" height="88" viewBox="0 0 90 88" fill="none" xmlns="http://www.w3.org/2000/svg">
<path d="M84.0815 59.9562C84.0815 59.9562 83.9513 59.1282 83.8752 59.1357L69.3828 60.5853C68.2296 60.7007 67.334 61.6542 67.2531 62.8521L66.8549 68.7694L55.6432 69.5987L54.8805 64.2378C54.7106 63.0452 53.706 62.1462 52.5432 62.1462H37.2457C36.0833 62.1462 35.0787 63.0452 34.9088 64.2378L34.1458 69.5987L22.934 68.7694L22.5359 62.8521C22.455 61.6537 21.5593 60.7003 20.4061 60.5849L5.90572 59.1357C5.83081 59.1282 5.77593 59.957 5.70103 59.957L5.6814 63.2084L17.9626 65.2614L18.3648 71.2285C18.4461 72.4369 19.3866 73.4139 20.5531 73.5007L35.9948 74.6426C36.0533 74.6468 36.1109 74.6493 36.1686 74.6493C37.329 74.6493 38.332 73.7499 38.5019 72.5573L39.2866 67.0387H50.5023L51.287 72.5573C51.4565 73.7495 52.4607 74.6489 53.6227 74.6489C53.6796 74.6489 53.7365 74.6468 53.7922 74.6426L69.2378 73.5007C70.4039 73.4139 71.3448 72.4369 71.4261 71.2285L71.8279 65.2614L84.1011 63.1993L84.0815 59.9562Z" fill="white"/>
<path d="M5.7043 35.4674V59.9835C5.74756 59.984 5.79082 59.9856 5.83368 59.9898L20.334 61.439C21.0935 61.515 21.6887 62.1486 21.7416 62.9376L22.1886 69.5732L34.8344 70.5088L35.7056 64.3839C35.8186 63.59 36.4755 63.0015 37.2502 63.0015H52.5477C53.322 63.0015 53.9789 63.59 54.0918 64.3839L54.9631 70.5088L67.6128 69.5732L68.0595 62.9376C68.1127 62.1486 68.7076 61.5154 69.467 61.439L83.9594 59.9898C84.0023 59.9856 84.0451 59.984 84.0884 59.9835V58.0273L84.0944 58.0252V35.4691H84.1481C86.0688 32.9277 87.846 30.2494 89.5516 27.3925C87.2881 23.3978 84.5126 19.8267 81.5484 16.5214C78.7989 17.956 76.1288 19.5813 73.6053 21.3091C72.3431 20.0086 70.9215 18.9447 69.5235 17.8327C68.1516 16.6904 66.6054 15.8528 65.1374 14.877C65.574 11.5064 65.7899 8.18736 65.8768 4.72421C62.0931 2.75013 58.0578 1.44127 53.9761 0.501152C52.3466 3.34019 50.8565 6.41426 49.5579 9.42064C48.0189 9.15405 46.4727 9.05523 44.9234 9.03613V9.03364C44.9126 9.03364 44.9025 9.03613 44.8933 9.03613C44.8837 9.03613 44.8737 9.03364 44.8641 9.03364V9.03613C43.3131 9.05523 41.7681 9.15405 40.2296 9.42064C38.9326 6.41509 37.4433 3.34144 35.8114 0.501152C31.7336 1.44127 27.696 2.75013 23.9147 4.72421C24.0012 8.18736 24.2171 11.5052 24.6549 14.877C23.1856 15.8528 21.6415 16.6904 20.2687 17.8327C18.8744 18.9447 17.4504 20.0086 16.187 21.3091C13.6647 19.5796 10.9957 17.9544 8.24386 16.5214C5.2793 19.8288 2.50781 23.3978 0.244629 27.3925C1.94822 30.2494 3.72672 32.9277 5.64822 35.4691L5.7043 35.4674Z" fill="#478CBF"/>
<path d="M71.0834 64.5089L70.6343 71.1777C70.5803 71.9817 69.9634 72.6216 69.1879 72.6793L53.7422 73.8216C53.7046 73.8245 53.6669 73.8258 53.6297 73.8258C52.8622 73.8258 52.2 73.2419 52.0867 72.443L51.201 66.2185H38.5993L37.7137 72.443C37.5947 73.281 36.8721 73.8835 36.0582 73.8216L20.6125 72.6793C19.837 72.6216 19.2201 71.9817 19.1661 71.1777L18.717 64.5089L5.67871 63.2058C5.68472 64.6584 5.70274 66.2496 5.70274 66.5664C5.70274 80.8385 23.1673 87.7025 44.8697 87.7814H44.923C66.6255 87.7025 84.086 80.8426 84.086 66.5664C84.086 66.2438 84.1048 64.6592 84.1113 63.2058L71.0834 64.5089Z" fill="#478CBF"/>
<path d="M33.0814 45.4171C33.0814 50.4208 29.1699 54.4778 24.3452 54.4778C19.5224 54.4778 15.6089 50.4237 15.6089 45.4171C15.6089 40.4175 19.5216 36.3647 24.3452 36.3647C29.1719 36.3647 33.0814 40.4167 33.0814 45.4171Z" fill="white"/>
<path d="M30.9919 45.9311C30.9919 49.2506 28.3966 51.9397 25.1917 51.9397C21.9888 51.9397 19.3916 49.2493 19.3916 45.9311C19.3916 42.6128 21.9884 39.9183 25.1917 39.9183C28.3962 39.9183 30.9919 42.6112 30.9919 45.9311Z" fill="#414042"/>
<path d="M44.9105 55.2935C43.3571 55.2935 42.0981 54.1067 42.0981 52.6438V44.3056C42.0981 42.844 43.3571 41.6559 44.9105 41.6559C46.4639 41.6559 47.7256 42.844 47.7256 44.3056V52.6438C47.7256 54.1067 46.4639 55.2935 44.9105 55.2935Z" fill="white"/>
<path d="M56.7043 45.4171C56.7043 50.4208 60.6158 54.4778 65.4446 54.4778C70.2674 54.4778 74.1809 50.4237 74.1809 45.4171C74.1809 40.4175 70.2686 36.3647 65.4446 36.3647C60.6178 36.3647 56.7043 40.4167 56.7043 45.4171Z" fill="white"/>
<path d="M58.8293 45.9311C58.8293 49.2506 61.4238 51.9397 64.6255 51.9397C67.8308 51.9397 70.4256 49.2493 70.4256 45.9311C70.4256 42.6128 67.8312 39.9183 64.6255 39.9183C61.4234 39.9183 58.8293 42.6112 58.8293 45.9311Z" fill="#414042"/>
</svg>
