<svg width="568" height="701" viewBox="0 0 568 701" fill="none" xmlns="http://www.w3.org/2000/svg">
<path d="M219.953 267.483C280.412 217.948 339.354 178.26 385.769 154.134C408.98 142.069 429.035 133.907 444.567 130.345C452.333 128.564 458.942 127.94 464.235 128.535C469.526 129.131 473.458 130.94 475.951 133.982C478.443 137.024 479.443 141.234 478.986 146.539C478.529 151.846 476.617 158.203 473.343 165.467C466.795 179.995 454.849 198.052 438.454 218.437C405.669 259.2 355.163 309.185 294.704 358.72C234.244 408.255 175.301 447.944 128.886 472.07C105.675 484.135 85.6216 492.295 70.0897 495.858C62.3227 497.639 55.7137 498.264 50.4201 497.668C45.1293 497.073 41.1981 495.265 38.7055 492.223C36.2129 489.18 35.2129 484.97 35.6697 479.665C36.1267 474.357 38.0393 468 41.3136 460.736C47.8614 446.208 59.8072 428.151 76.2016 407.767C108.986 367.004 159.493 317.018 219.953 267.483Z" stroke="#AAAA7D"/>
<path d="M273.04 332.28C333.499 282.745 392.442 243.056 438.857 218.93C462.068 206.865 482.122 198.704 497.654 195.142C505.421 193.36 512.029 192.736 517.323 193.332C522.614 193.927 526.546 195.736 529.038 198.778C531.53 201.821 532.53 206.031 532.073 211.335C531.616 216.643 529.704 222.999 526.43 230.264C519.882 244.792 507.936 262.849 491.541 283.234C458.757 323.996 408.25 373.981 347.791 423.516C287.332 473.051 228.389 512.74 181.974 536.866C158.763 548.931 138.709 557.092 123.177 560.654C115.41 562.436 108.801 563.061 103.508 562.465C98.2167 561.869 94.2855 560.061 91.7929 557.019C89.3003 553.977 88.3003 549.766 88.7571 544.461C89.2141 539.154 91.1267 532.797 94.401 525.532C100.949 511.004 112.895 492.947 129.289 472.563C162.074 431.8 212.581 381.815 273.04 332.28Z" stroke="#AAAA7D"/>
<path d="M246.496 299.882C306.955 250.347 365.897 210.659 412.312 186.533C435.523 174.468 455.578 166.306 471.11 162.744C478.876 160.963 485.485 160.339 490.778 160.934C496.069 161.53 500.001 163.339 502.494 166.381C504.986 169.423 505.986 173.633 505.529 178.938C505.072 184.245 503.16 190.602 499.886 197.866C493.338 212.394 481.392 230.451 464.997 250.836C432.212 291.599 381.706 341.584 321.247 391.119C260.787 440.654 201.844 480.343 155.429 504.469C132.218 516.534 112.165 524.694 96.6327 528.257C88.8656 530.038 82.2567 530.663 76.9631 530.067C71.6723 529.472 67.741 527.664 65.2484 524.622C62.7559 521.579 61.7559 517.369 62.2127 512.064C62.6697 506.756 64.5822 500.399 67.8565 493.135C74.4043 478.607 86.3501 460.55 102.745 440.166C135.529 399.403 186.036 349.417 246.496 299.882Z" stroke="#AAAA7D"/>
<path d="M161.227 182.503C165.722 179.301 171.694 178.949 176.523 181.598L390.73 296.634C396.284 299.604 399.252 305.795 398.222 311.977C397.191 318.159 392.263 322.965 386.012 323.912L294.468 337.792L364.098 436.501C370.286 445.278 368.189 457.402 359.412 463.591C350.635 469.779 338.511 467.682 332.323 458.905L262.693 360.196L218.915 441.727C215.944 447.281 209.753 450.249 203.571 449.218C197.389 448.188 192.584 443.26 191.645 437.069L155.192 196.638C154.362 191.169 156.672 185.715 161.227 182.503Z" fill="#D9D9D9"/>
<path d="M166.227 177.503C170.722 174.301 176.694 173.949 181.523 176.598L395.73 291.634C401.284 294.604 404.252 300.795 403.222 306.977C402.191 313.159 397.263 317.965 391.012 318.913L299.468 332.792L369.098 431.501C375.286 440.278 373.189 452.402 364.412 458.591C355.635 464.779 343.511 462.682 337.323 453.905L267.693 355.196L223.915 436.727C220.944 442.281 214.753 445.249 208.571 444.219C202.389 443.188 197.584 438.26 196.645 432.069L160.192 191.639C159.362 186.169 161.672 180.715 166.227 177.503Z" fill="#3CA0B4"/>
<ellipse cx="406" cy="29.5" rx="30" ry="29.5" fill="#AAAA7D"/>
<ellipse cx="426.5" cy="92" rx="20.5" ry="20" fill="#AAAA7D"/>
<ellipse cx="99" cy="618.5" rx="30" ry="29.5" fill="#3CA0B4"/>
<ellipse cx="119.5" cy="681" rx="20.5" ry="20" fill="#3CA0B4"/>
<ellipse cx="122.531" cy="116.376" rx="15.5" ry="41.5" transform="rotate(-37.4282 122.531 116.376)" fill="#186372"/>
<ellipse cx="190.128" cy="105.694" rx="15.5" ry="41.5" transform="rotate(10.9917 190.128 105.694)" fill="#186372"/>
<ellipse cx="91.284" cy="175.131" rx="15.5" ry="41.5" transform="rotate(-75.0025 91.284 175.131)" fill="#186372"/>
</svg>
