<svg width="92" height="94" viewBox="0 0 92 94" fill="none" xmlns="http://www.w3.org/2000/svg">
<g clip-path="url(#clip0_169_280)">
<path d="M91.5 0H0.5V94H91.5V0Z" fill="#F7DF1E"/>
<path d="M61.6289 73.4379C63.4619 76.5294 65.8467 78.8019 70.0645 78.8019C73.6077 78.8019 75.8711 76.9726 75.8711 74.445C75.8711 71.4161 73.5456 70.3433 69.6456 68.5812L67.5078 67.6338C61.3371 64.9182 57.2378 61.5163 57.2378 54.3245C57.2378 47.6998 62.1243 42.6566 69.7611 42.6566C75.198 42.6566 79.1067 44.6112 81.9233 49.729L75.2644 54.1455C73.7983 51.4299 72.2167 50.3601 69.7611 50.3601C67.2565 50.3601 65.669 52.0014 65.669 54.1455C65.669 56.7954 67.2579 57.8682 70.9268 59.5095L73.0646 60.4554C80.3301 63.6738 84.4323 66.9549 84.4323 74.3316C84.4323 82.2843 78.3845 86.6412 70.2623 86.6412C62.3208 86.6412 57.1901 82.7319 54.6797 77.6082L61.6289 73.4379ZM31.4212 74.2033C32.7646 76.6652 33.9866 78.7466 36.9246 78.7466C39.734 78.7466 41.5063 77.6112 41.5063 73.1962V43.1609H50.0574V73.3155C50.0574 82.4619 44.8661 86.6247 37.2886 86.6247C30.4419 86.6247 26.4769 82.9647 24.4604 78.5564L31.4212 74.2033Z" fill="black"/>
</g>
<defs>
<clipPath id="clip0_169_280">
<rect width="91" height="94" fill="white" transform="translate(0.5)"/>
</clipPath>
</defs>
</svg>
