<svg width="191" height="68" viewBox="0 0 191 68" fill="none" xmlns="http://www.w3.org/2000/svg">
<mask id="mask0_169_123" style="mask-type:alpha" maskUnits="userSpaceOnUse" x="0" y="0" width="47" height="68">
<path d="M22.5117 30.4404H12.3359V35.7842H21.6162V39.624H12.3359V45.1602H22.7041V48.5625C24.9429 44.6426 29.1626 42 34 42C41.1797 42 47 47.8203 47 55C47 62.1797 41.1797 68 34 68C26.8203 67.9999 21 62.1797 21 55C21 52.8355 21.5301 50.7951 22.4658 49H8.1123V26.5996H22.5117V30.4404Z" fill="#D9D9D9"/>
<path fill-rule="evenodd" clip-rule="evenodd" d="M44.1758 42H39.2803L37.9121 36.4561H28.9121L27.5439 42H22.6484L29.2725 16.7998H37.5518L44.1758 42ZM30.0283 32.0645H36.7959L33.7363 19.7881H33.0879L30.0283 32.0645Z" fill="#D9D9D9"/>
<path d="M13 0C20.1797 0 26 5.8203 26 13C26 20.1797 20.1797 26 13 26C5.8203 26 0 20.1797 0 13C0 5.8203 5.8203 0 13 0Z" fill="#D9D9D9"/>
</mask>
<g mask="url(#mask0_169_123)">
<path d="M7 26C7 20.4772 11.4772 16 17 16H43V40C43 44.4183 39.4183 48 35 48H7V26Z" fill="#186372"/>
<path d="M7 26C7 20.4772 11.4772 16 17 16H43V40C43 44.4183 39.4183 48 35 48H7V26Z" fill="#3CA0B4"/>
</g>
<path d="M59.376 46V20.8H75.576V25.12H64.128V31.132H74.568V35.452H64.128V41.68H75.792V46H59.376ZM77.5816 46L84.2056 20.8H92.4856L99.1096 46H94.2136L92.8456 40.456H83.8456L82.4776 46H77.5816ZM84.9616 36.064H91.7296L88.6696 23.788H88.0216L84.9616 36.064ZM102.126 46V20.8H106.878V30.808H107.526L115.698 20.8H121.782L111.27 33.22L122.142 46H115.878L107.526 35.776H106.878V46H102.126ZM122.933 46L129.557 20.8H137.837L144.461 46H139.565L138.197 40.456H129.197L127.829 46H122.933ZM130.313 36.064H137.081L134.021 23.788H133.373L130.313 36.064ZM147.478 46V20.8H158.422C160.006 20.8 161.386 21.076 162.562 21.628C163.738 22.18 164.65 22.96 165.298 23.968C165.946 24.976 166.27 26.164 166.27 27.532V27.964C166.27 29.476 165.91 30.7 165.19 31.636C164.47 32.572 163.582 33.256 162.526 33.688V34.336C163.486 34.384 164.23 34.72 164.758 35.344C165.286 35.944 165.55 36.748 165.55 37.756V46H160.798V38.44C160.798 37.864 160.642 37.396 160.33 37.036C160.042 36.676 159.55 36.496 158.854 36.496H152.23V46H147.478ZM152.23 32.176H157.918C159.046 32.176 159.922 31.876 160.546 31.276C161.194 30.652 161.518 29.836 161.518 28.828V28.468C161.518 27.46 161.206 26.656 160.582 26.056C159.958 25.432 159.07 25.12 157.918 25.12H152.23V32.176ZM169.504 46V41.824H172.816V24.976H169.504V20.8H179.872C183.256 20.8 185.824 21.664 187.576 23.392C189.352 25.096 190.24 27.64 190.24 31.024V35.776C190.24 39.16 189.352 41.716 187.576 43.444C185.824 45.148 183.256 46 179.872 46H169.504ZM177.568 41.68H179.944C181.864 41.68 183.268 41.176 184.156 40.168C185.044 39.16 185.488 37.744 185.488 35.92V30.88C185.488 29.032 185.044 27.616 184.156 26.632C183.268 25.624 181.864 25.12 179.944 25.12H177.568V41.68Z" fill="white"/>
</svg>
