<svg width="161" height="90" viewBox="0 0 161 90" fill="none" xmlns="http://www.w3.org/2000/svg">
<mask id="mask0_169_284" style="mask-type:luminance" maskUnits="userSpaceOnUse" x="2" y="2" width="157" height="86">
<path d="M2.74951 45C2.74951 68.295 37.5602 87.1798 80.4997 87.1798C123.439 87.1798 158.25 68.295 158.25 45C158.25 21.7052 123.439 2.8201 80.4997 2.8201C37.5602 2.8201 2.74951 21.7052 2.74951 45Z" fill="white"/>
</mask>
<g mask="url(#mask0_169_284)">
<path d="M2.74951 45C2.74951 68.295 37.5602 87.1798 80.4997 87.1798C123.439 87.1798 158.25 68.295 158.25 45C158.25 21.7052 123.439 2.8201 80.4997 2.8201C37.5602 2.8201 2.74951 21.7052 2.74951 45Z" fill="url(#paint0_radial_169_284)"/>
</g>
<mask id="mask1_169_284" style="mask-type:luminance" maskUnits="userSpaceOnUse" x="-1" y="-2" width="163" height="94">
<path d="M-0.48999 -1.98289H161.489V91.9828H-0.48999V-1.98289Z" fill="white"/>
</mask>
<g mask="url(#mask1_169_284)">
<path d="M80.4996 84.0481C121.762 84.0481 155.213 66.5655 155.213 44.9998C155.213 23.4344 121.762 5.9516 80.4996 5.9516C39.2373 5.9516 5.78662 23.4344 5.78662 44.9998C5.78662 66.5655 39.2373 84.0481 80.4996 84.0481Z" fill="#777BB3"/>
</g>
<mask id="mask2_169_284" style="mask-type:luminance" maskUnits="userSpaceOnUse" x="-1" y="-2" width="163" height="94">
<path d="M-0.48999 -1.98289H161.489V91.9828H-0.48999V-1.98289Z" fill="white"/>
</mask>
<g mask="url(#mask2_169_284)">
<path d="M44.9922 49.8413C48.385 49.8413 50.9179 49.196 52.5206 47.924C54.1061 46.665 55.2011 44.4838 55.7751 41.4412C56.3102 38.5973 56.1063 36.6116 55.1693 35.54C54.2112 34.4454 52.1398 33.8903 49.0127 33.8903H43.5906L40.5847 49.8413H44.9922ZM27.258 69.49C27.0063 69.49 26.7672 69.374 26.6072 69.1733C26.4469 68.9729 26.382 68.709 26.4301 68.454L34.3963 26.1837C34.4734 25.7751 34.8207 25.4798 35.2245 25.4798H52.3937C57.7897 25.4798 61.806 26.9908 64.3304 29.9713C66.8684 32.9675 67.6522 37.1556 66.6597 42.4192C66.2559 44.5636 65.5613 46.5551 64.5954 48.3381C63.6283 50.1232 62.3501 51.7748 60.7959 53.2481C58.9353 55.0439 56.8296 56.3461 54.5428 57.1123C52.2922 57.8684 49.4019 58.2518 45.9522 58.2518H39.0001L37.0147 68.7858C36.9376 69.1948 36.5906 69.49 36.1868 69.49H27.258Z" fill="black"/>
<path d="M44.286 34.7602H49.0127C52.7868 34.7602 54.0978 35.6143 54.5433 36.1233C55.2823 36.9684 55.4218 38.7503 54.9468 41.276C54.4131 44.1037 53.4238 46.1086 52.0059 47.2344C50.5543 48.387 48.1943 48.9711 44.9921 48.9711H41.608L44.286 34.7602ZM52.3937 24.6096H35.2241C34.4165 24.6096 33.7222 25.2001 33.5681 26.0176L25.6018 68.288C25.5057 68.7981 25.6356 69.3257 25.9559 69.7268C26.2765 70.1278 26.754 70.3599 27.2579 70.3599H36.1865C36.9944 70.3599 37.6887 69.7694 37.8428 68.9518L39.6955 59.1217H45.9522C49.4904 59.1217 52.4691 58.7238 54.8045 57.9393C57.2064 57.1345 59.4162 55.77 61.372 53.8837C62.9896 52.3489 64.322 50.6262 65.3315 48.7628C66.3414 46.8989 67.0669 44.8203 67.4879 42.5849C68.5326 37.0444 67.6839 32.6077 64.9657 29.399C62.2739 26.2209 58.0438 24.6096 52.3937 24.6096ZM39.561 50.7112H44.9921C48.592 50.7112 51.2733 50.0119 53.0351 48.6132C54.7972 47.2141 55.9856 44.8792 56.6032 41.6072C57.194 38.4658 56.9249 36.2489 55.7958 34.9574C54.6653 33.666 52.4047 33.0201 49.0127 33.0201H42.8951L39.561 50.7112ZM52.3937 26.3497C57.5588 26.3497 61.3267 27.7476 63.6951 30.5436C66.0632 33.3397 66.7764 37.2425 65.8315 42.2531C65.4426 44.3172 64.7848 46.2043 63.8588 47.914C62.9316 49.6248 61.721 51.1891 60.2249 52.6076C58.442 54.3283 56.4615 55.5545 54.282 56.2847C52.1026 57.017 49.3268 57.3816 45.9522 57.3816H38.3043L36.1865 68.6198H27.2579L35.2241 26.3497H52.3937Z" fill="white"/>
<path d="M87.1317 58.2518C86.8797 58.2518 86.641 58.1358 86.481 57.9351C86.3204 57.7347 86.2554 57.4711 86.3035 57.2159L89.8274 38.5129C90.1626 36.7343 90.0799 35.4576 89.5949 34.9182C89.2979 34.5884 88.4059 34.0354 85.7684 34.0354H79.3842L74.9537 57.5477C74.8767 57.9566 74.5294 58.2518 74.1255 58.2518H65.2673C65.0153 58.2518 64.7766 58.1358 64.6163 57.9351C64.456 57.7347 64.391 57.4708 64.4391 57.2159L72.4053 14.9455C72.4824 14.5369 72.8297 14.2417 73.2335 14.2417H82.0918C82.3437 14.2417 82.5825 14.3577 82.7428 14.5581C82.9031 14.7588 82.968 15.0224 82.9199 15.2776L80.9976 25.4798H87.8654C93.0974 25.4798 96.6452 26.4311 98.7115 28.3881C100.818 30.3846 101.475 33.5768 100.665 37.8772L96.9587 57.5477C96.8817 57.9566 96.5347 58.2518 96.1306 58.2518H87.1317Z" fill="black"/>
<path d="M82.0917 13.3714H73.2335C72.4255 13.3714 71.7312 13.9619 71.5771 14.7795L63.6109 57.0498C63.5147 57.56 63.6446 58.0875 63.9652 58.4886C64.2858 58.8897 64.7633 59.1217 65.2672 59.1217H74.1255C74.9331 59.1217 75.6277 58.5312 75.7818 57.7137L80.0796 34.9052H85.7683C88.4013 34.9052 88.9539 35.4853 88.9761 35.5102C89.1358 35.6874 89.3459 36.5082 88.9992 38.3469L85.4753 57.0498C85.3791 57.56 85.509 58.0875 85.8296 58.4886C86.1502 58.8897 86.6277 59.1217 87.1316 59.1217H96.1305C96.9381 59.1217 97.6327 58.5312 97.7868 57.7137L101.493 38.0432C102.363 33.4259 101.619 29.9622 99.2823 27.7476C97.0529 25.636 93.3183 24.6096 87.8653 24.6096H82.0206L83.7481 15.4436C83.844 14.9335 83.7143 14.4056 83.3937 14.0048C83.0731 13.6037 82.5956 13.3714 82.0917 13.3714ZM82.0917 15.1115L79.9739 26.3497H87.8653C92.8307 26.3497 96.2556 27.2436 98.1406 29.0289C100.026 30.8154 100.59 33.7101 99.8369 37.7115L96.1305 57.3816H87.1316L90.6555 38.6789C91.0565 36.5514 90.9092 35.1001 90.2129 34.3264C89.5163 33.5526 88.0346 33.1651 85.7683 33.1651H78.6885L74.1255 57.3816H65.2672L73.2335 15.1115H82.0917Z" fill="white"/>
<path d="M114.681 49.8413C118.074 49.8413 120.607 49.196 122.21 47.924C123.795 46.6653 124.89 44.4841 125.465 41.4412C126 38.5973 125.796 36.6116 124.859 35.54C123.9 34.4454 121.829 33.8903 118.702 33.8903H113.28L110.274 49.8413H114.681ZM96.9474 69.49C96.6957 69.49 96.4567 69.374 96.2967 69.1733C96.1364 68.9729 96.0712 68.709 96.1192 68.454L104.085 26.1837C104.163 25.7751 104.51 25.4798 104.914 25.4798H122.083C127.479 25.4798 131.495 26.9908 134.02 29.9713C136.558 32.9672 137.341 37.1554 136.349 42.4192C135.945 44.5636 135.25 46.5551 134.285 48.3381C133.317 50.1232 132.039 51.7748 130.485 53.2481C128.625 55.0439 126.519 56.3461 124.232 57.1123C121.981 57.8684 119.091 58.2518 115.641 58.2518H108.689L106.704 68.7858C106.627 69.1948 106.28 69.49 105.876 69.49H96.9474Z" fill="black"/>
<path d="M113.975 34.7602H118.702C122.476 34.7602 123.787 35.6143 124.232 36.1233C124.972 36.9684 125.111 38.7503 124.636 41.2757C124.102 44.1037 123.113 46.1086 121.695 47.2344C120.243 48.387 117.883 48.9711 114.681 48.9711H111.297L113.975 34.7602ZM122.083 24.6096H104.914C104.106 24.6096 103.412 25.2001 103.258 26.0176L95.2913 68.288C95.1951 68.7981 95.325 69.3257 95.6453 69.7268C95.9659 70.1278 96.4434 70.3599 96.9474 70.3599H105.876C106.684 70.3599 107.378 69.7694 107.532 68.9518L109.385 59.1217H115.641C119.18 59.1217 122.158 58.7238 124.494 57.9393C126.896 57.1345 129.106 55.7697 131.062 53.8831C132.679 52.3486 134.011 50.6262 135.021 48.7628C136.031 46.8989 136.756 44.8203 137.177 42.5849C138.222 37.0441 137.373 32.6074 134.655 29.3987C131.963 26.2209 127.733 24.6096 122.083 24.6096ZM109.25 50.7112H114.681C118.281 50.7112 120.963 50.0119 122.724 48.6132C124.487 47.2141 125.675 44.8792 126.292 41.6072C126.883 38.4658 126.614 36.2489 125.485 34.9574C124.355 33.666 122.094 33.0201 118.702 33.0201H112.584L109.25 50.7112ZM122.083 26.3497C127.248 26.3497 131.016 27.7476 133.384 30.5436C135.753 33.3397 136.466 37.2425 135.521 42.2531C135.132 44.3172 134.474 46.2043 133.548 47.914C132.621 49.6248 131.41 51.1891 129.914 52.6076C128.131 54.3283 126.151 55.5545 123.971 56.2847C121.792 57.017 119.016 57.3816 115.641 57.3816H107.993L105.876 68.6198H96.9474L104.914 26.3497H122.083Z" fill="white"/>
</g>
<defs>
<radialGradient id="paint0_radial_169_284" cx="0" cy="0" r="1" gradientUnits="userSpaceOnUse" gradientTransform="translate(49.4311 17.6492) scale(102.097 105.293)">
<stop stop-color="#AEB2D5"/>
<stop offset="0.3" stop-color="#AEB2D5"/>
<stop offset="0.75" stop-color="#484C89"/>
<stop offset="1" stop-color="#484C89"/>
</radialGradient>
</defs>
</svg>
