<svg width="103" height="114" viewBox="0 0 103 114" fill="none" xmlns="http://www.w3.org/2000/svg">
<g clip-path="url(#clip0_169_273)">
<path d="M46.1313 0.000778189C42.3228 0.0188075 38.6858 0.349731 35.4856 0.926666C26.0582 2.62353 24.3465 6.17521 24.3465 12.7251V21.3756H46.6247V24.259H24.3465H15.9857C9.51104 24.259 3.84164 28.2239 2.06833 35.7665C0.0228341 44.412 -0.0678948 49.807 2.06833 58.8343C3.65194 65.5539 7.43382 70.3418 13.9085 70.3418H21.5682V59.9718C21.5682 52.4802 27.9304 45.8719 35.4856 45.8719H57.7378C63.932 45.8719 68.8769 40.6758 68.8769 34.338V12.7251C68.8769 6.57398 63.7835 1.95327 57.7378 0.926666C53.9107 0.277613 49.9398 -0.0172514 46.1313 0.000778189ZM34.0835 6.95816C36.3846 6.95816 38.2639 8.90402 38.2639 11.2966C38.2639 13.6807 36.3846 15.6086 34.0835 15.6086C31.774 15.6086 29.9031 13.6807 29.9031 11.2966C29.9031 8.90403 31.774 6.95816 34.0835 6.95816Z" fill="url(#paint0_linear_169_273)"/>
<path d="M71.6551 24.259V34.338C71.6551 42.1521 65.1527 48.7289 57.7377 48.7289H35.4855C29.3903 48.7289 24.3464 54.0438 24.3464 60.2628V81.8757C24.3464 88.0268 29.5965 91.6449 35.4855 93.4096C42.5375 95.5222 49.3001 95.904 57.7377 93.4096C63.3463 91.7551 68.8768 88.4256 68.8768 81.8757V73.2252H46.6246V70.3418H68.8768H80.0159C86.4906 70.3418 88.9033 65.7406 91.155 58.8343C93.4809 51.7244 93.3819 44.8871 91.155 35.7665C89.5549 29.1996 86.4988 24.259 80.0159 24.259H71.6551ZM59.1398 78.9922C61.4493 78.9922 63.3202 80.9201 63.3202 83.3042C63.3202 85.6968 61.4493 87.6426 59.1398 87.6426C56.8387 87.6426 54.9594 85.6968 54.9594 83.3042C54.9594 80.9201 56.8387 78.9922 59.1398 78.9922Z" fill="url(#paint1_linear_169_273)"/>
<path opacity="0.44382" d="M46.8775 114C63.3658 114 76.7321 111.359 76.7321 108.102C76.7321 104.845 63.3658 102.204 46.8775 102.204C30.3893 102.204 17.0229 104.845 17.0229 108.102C17.0229 111.359 30.3893 114 46.8775 114Z" fill="url(#paint2_radial_169_273)"/>
</g>
<defs>
<linearGradient id="paint0_linear_169_273" x1="0.5" y1="-2.45523e-07" x2="52.6744" y2="43.6385" gradientUnits="userSpaceOnUse">
<stop stop-color="#5A9FD4"/>
<stop offset="1" stop-color="#306998"/>
</linearGradient>
<linearGradient id="paint1_linear_169_273" x1="58.6045" y1="82.5769" x2="39.7164" y2="56.598" gradientUnits="userSpaceOnUse">
<stop stop-color="#FFD43B"/>
<stop offset="1" stop-color="#FFE873"/>
</linearGradient>
<radialGradient id="paint2_radial_169_273" cx="0" cy="0" r="1" gradientUnits="userSpaceOnUse" gradientTransform="translate(46.8775 108.102) rotate(-90) scale(5.89802 25.4453)">
<stop stop-color="#B8B8B8" stop-opacity="0.498039"/>
<stop offset="1" stop-color="#7F7F7F" stop-opacity="0"/>
</radialGradient>
<clipPath id="clip0_169_273">
<rect width="102" height="114" fill="white" transform="translate(0.5)"/>
</clipPath>
</defs>
</svg>
