<svg width="78" height="71" viewBox="0 0 78 71" fill="none" xmlns="http://www.w3.org/2000/svg">
<path d="M33.333 32.1284H11.4658V43.6812H31.4092V51.9819H11.4658V63.9497H33.7471V70.0884H2.38965V23.8257H33.333V32.1284ZM58.0205 57.1177C65.3325 57.1177 71.9874 59.9453 76.9668 64.5708C75.9221 67.7736 72.9128 70.0884 69.3613 70.0884H34.4824C39.4468 62.2896 48.1316 57.1179 58.0205 57.1177ZM77.3613 47.4497V57.1177H69.3682L66.4277 45.1333H47.0869L44.1475 57.1177H33.627L47.8613 2.64111H65.6533L77.3613 47.4497ZM49.4863 35.6392H64.0293L57.4541 9.10107H56.0605L49.4863 35.6392ZM40.0811 0.911621C37.1708 13.3058 26.1033 22.5296 12.8936 22.5298C8.24266 22.5298 3.85741 21.3853 0 19.3628V10.9116C0.000181941 5.38893 4.47726 0.911621 10 0.911621H40.0811Z" fill="#186372"/>
<path d="M33.333 32.1284H11.4658V43.6812H31.4092V51.9819H11.4658V63.9497H33.7471V70.0884H2.38965V23.8257H33.333V32.1284ZM58.0205 57.1177C65.3325 57.1177 71.9874 59.9453 76.9668 64.5708C75.9221 67.7736 72.9128 70.0884 69.3613 70.0884H34.4824C39.4468 62.2896 48.1316 57.1179 58.0205 57.1177ZM77.3613 47.4497V57.1177H69.3682L66.4277 45.1333H47.0869L44.1475 57.1177H33.627L47.8613 2.64111H65.6533L77.3613 47.4497ZM49.4863 35.6392H64.0293L57.4541 9.10107H56.0605L49.4863 35.6392ZM40.0811 0.911621C37.1708 13.3058 26.1033 22.5296 12.8936 22.5298C8.24266 22.5298 3.85741 21.3853 0 19.3628V10.9116C0.000181941 5.38893 4.47726 0.911621 10 0.911621H40.0811Z" fill="#3CA0B4"/>
</svg>
